P2
#Test
2 2 
255 
1 2 3 4 